<?xml version="1.0"?>
<svg xmlns="http://www.w3.org/2000/svg" xmlns:xlink="http://www.w3.org/1999/xlink" version="1.1" id="Capa_1" x="0px" y="0px" viewBox="0 0 512.001 512.001" style="enable-background:new 0 0 512.001 512.001;" xml:space="preserve" width="512px" height="512px" class=""><g><script xmlns="" id="__gaOptOutExtension" class="active-path"/><g>
	<g>
		<path d="M199.022,254.252c-4.198,0-7.601,3.403-7.601,7.601v10.733c0,4.198,3.403,7.6,7.601,7.6s7.6-3.403,7.6-7.6v-10.733    C206.622,257.655,203.219,254.252,199.022,254.252z" data-original="#000000" class="active-path" fill="#FFFFFF"/>
	</g>
</g><g>
	<g>
		<path d="M316.487,254.252c-4.198,0-7.601,3.403-7.601,7.601v10.733c0,4.198,3.403,7.6,7.601,7.6s7.6-3.403,7.6-7.6v-10.733    C324.088,257.655,320.686,254.252,316.487,254.252z" data-original="#000000" class="active-path" fill="#FFFFFF"/>
	</g>
</g><g>
	<g>
		<path d="M222.776,233.03c-6.345-6.345-14.781-9.839-23.754-9.839c-8.974,0-17.41,3.494-23.754,9.839    c-2.968,2.968-2.968,7.781,0,10.748c1.484,1.486,3.429,2.226,5.374,2.226c1.945,0,3.891-0.742,5.374-2.226    c3.474-3.474,8.093-5.387,13.006-5.387s9.532,1.913,13.006,5.387c2.968,2.968,7.781,2.968,10.748,0    C225.744,240.81,225.744,235.997,222.776,233.03z" data-original="#000000" class="active-path" fill="#FFFFFF"/>
	</g>
</g><g>
	<g>
		<path d="M340.241,233.031c-6.345-6.345-14.78-9.839-23.754-9.839c-8.973,0-17.409,3.494-23.754,9.839    c-2.968,2.968-2.968,7.781,0,10.748c2.968,2.967,7.781,2.967,10.748,0c3.474-3.474,8.093-5.387,13.006-5.387    c4.913,0,9.532,1.913,13.006,5.387c1.484,1.485,3.429,2.226,5.374,2.226s3.89-0.742,5.374-2.226    C343.209,240.811,343.209,236,340.241,233.031z" data-original="#000000" class="active-path" fill="#FFFFFF"/>
	</g>
</g><g>
	<g>
		<path d="M455.539,503.616c-2.893-27.918-11.906-54.311-26.788-78.444c-2.203-3.572-6.886-4.683-10.458-2.48    c-3.573,2.203-4.684,6.886-2.48,10.458c13.672,22.171,21.951,46.407,24.606,72.032c0.404,3.909,3.705,6.818,7.551,6.818    c0.261,0,0.527-0.013,0.792-0.042C452.937,511.527,455.973,507.791,455.539,503.616z" data-original="#000000" class="active-path" fill="#FFFFFF"/>
	</g>
</g><g>
	<g>
		<path d="M402.69,86.141c23.749,0,43.07-19.32,43.07-43.07S426.438,0,402.689,0c-18.985,0-35.128,12.352-40.846,29.438    C292.23,15.159,236.811,18.905,197.049,40.595c-3.686,2.01-5.044,6.627-3.033,10.311c1.379,2.529,3.988,3.962,6.679,3.962    c1.229,0,2.477-0.299,3.632-0.929c36.691-20.014,88.933-23.175,155.328-9.428c0.43,12.966,6.612,24.497,16.079,32.116    c-10.079,13.287-13.177,33.928-14.121,46.217c-69.45-5.284-139.734-5.338-209.2-0.155c2.992-13.462,11.34-37.646,34.277-56.798    c3.222-2.691,3.652-7.483,0.963-10.706c-2.691-3.222-7.484-3.652-10.706-0.963c-29.71,24.807-38.113,56.288-40.457,70.485    c-10.499,3.574-18.281,13.821-18.281,25.229v44.613c0,6.752,2.651,12.914,7.465,17.351c0.851,0.785,1.754,1.495,2.697,2.134    c-0.961,4.576-1.677,9.209-2.141,13.879c-17.995,3.282-31.684,19.064-31.684,37.993c0,18.725,13.393,34.376,31.101,37.888    c0.266,11.951,1.318,26.59,3.563,39.203c-1.678,0.266-3.398,0.411-5.203,0.411c-3.324,0-6.263,2.161-7.255,5.333    c-0.992,3.173,0.195,6.623,2.928,8.515c4.637,3.213,9.913,6.293,15.577,9.117c0.074,0.886,0.161,1.837,0.256,2.827    c-44.795,32.294-73.527,81.031-79.051,134.414c-0.433,4.175,2.602,7.911,6.778,8.342c0.266,0.027,0.53,0.042,0.791,0.042    c3.846,0,7.146-2.909,7.551-6.819c4.802-46.41,28.755-89.032,66.273-118.695c0.65,3.709,1.431,7.617,2.376,11.637    c0.012,0.06,0.025,0.119,0.04,0.177c9.894,41.83,30.585,68.22,59.839,76.317c3.767,1.043,7.712-0.943,9.119-4.59l3.168-8.214    l36.003,34.671v7.915c0,4.197,3.403,7.6,7.601,7.6s7.6-3.403,7.6-7.6v-7.915l36.008-34.668l3.161,8.208    c1.406,3.65,5.352,5.638,9.121,4.594c29.254-8.097,49.946-34.487,59.839-76.317c0.013-0.058,0.026-0.116,0.039-0.174    c0.948-4.024,1.73-7.936,2.38-11.649c4.526,3.579,8.885,7.36,13.021,11.322c5.503,5.265,10.708,10.912,15.47,16.786    c1.502,1.854,3.696,2.815,5.909,2.815c1.681,0,3.374-0.555,4.781-1.696c3.261-2.643,3.762-7.429,1.118-10.689    c-5.163-6.37-10.806-12.493-16.767-18.197c-6.604-6.325-13.719-12.236-21.191-17.622c0.095-0.986,0.181-1.935,0.255-2.817    c5.657-2.821,10.934-5.904,15.579-9.121c2.733-1.893,3.919-5.342,2.928-8.516c-0.991-3.174-3.93-5.334-7.255-5.334    c-1.804,0-3.525-0.147-5.207-0.412c2.246-12.614,3.299-27.252,3.564-39.201c17.709-3.512,31.103-19.163,31.103-37.889    c0-18.929-13.69-34.711-31.686-37.993c-0.465-4.677-1.183-9.317-2.145-13.9c0.939-0.638,1.849-1.329,2.699-2.111    c4.815-4.438,7.467-10.6,7.468-17.352v-44.613c0-10.968-7.194-20.862-17.079-24.785c0.921-12.455,4.16-32.163,12.62-41.142    C393.541,85.386,398.028,86.141,402.69,86.141z M125.577,288.063c-9.199-3.164-15.829-11.898-15.829-22.157    c0-10.26,6.631-18.993,15.829-22.158V288.063z M386.425,243.748c9.2,3.164,15.831,11.898,15.831,22.158    c0,10.26-6.632,18.994-15.831,22.158V243.748z M140.777,297.675v-5.54c7.554,11.173,17.077,18.818,28.189,22.705    c-3.105,2.751-6.02,5.496-8.851,8.169c-5.735,5.414-10.989,10.367-16.487,14.035C141.561,323.761,140.777,308.353,140.777,297.675    z M356.937,394.796c-0.013,0.053-0.025,0.108-0.037,0.164c-5.52,23.245-17.35,52.022-42.584,62.747l-4.636-12.038    c-0.915-2.376-2.96-4.137-5.447-4.688c-2.484-0.551-5.083,0.178-6.917,1.945L256,482.703l-41.304-39.776    c-1.834-1.766-4.431-2.498-6.916-1.946c-2.486,0.55-4.531,2.31-5.447,4.686l-4.644,12.043    c-25.235-10.723-37.064-39.499-42.585-62.746c-0.012-0.056-0.024-0.112-0.037-0.168c-1.869-7.91-3.059-15.366-3.82-21.557    c11.414,4.165,28.343,8.886,46.51,8.886c4.12,0,8.307-0.243,12.502-0.791c19.903-2.599,35.479-11.6,45.75-26.277    c10.271,14.677,25.847,23.677,45.75,26.277c22.675,2.96,44.99-2.978,58.998-8.086    C359.995,379.438,358.806,386.893,356.937,394.796z M360.833,356.92c-19.729,8.099-40.547,11.502-57.108,9.338    c-19.768-2.582-33.466-12.638-40.711-29.888c-1.185-2.821-3.947-4.658-7.008-4.658c-3.06,0-5.823,1.836-7.008,4.658    c-7.245,17.25-20.943,27.306-40.711,29.888c-16.562,2.165-37.379-1.24-57.104-9.336c-2.26-0.929-4.477-1.908-6.635-2.929    c9.775-4.616,17.702-12.099,26.001-19.931c3.477-3.282,7.073-6.676,10.891-9.934c9.433-8.035,17.94-13.24,27.585-16.876    c13.104-4.935,24.554-4.897,34.035,0.116c2.756,1.455,5.015,3.449,6.714,5.924c1.415,2.063,3.756,3.298,6.257,3.301    c0.003,0,0.007,0,0.01,0c2.498,0,4.837-1.227,6.256-3.284c1.825-2.645,4.375-4.83,7.374-6.318    c9.341-4.63,20.552-4.543,33.315,0.259c9.511,3.586,17.857,8.662,27.062,16.459c0.002,0.002,0.005,0.004,0.007,0.006    c4.019,3.395,7.78,6.943,11.418,10.373c8.298,7.826,16.227,15.304,25.982,19.909C365.3,355.016,363.087,355.993,360.833,356.92z     M238.266,289.588c4.24-5.245,10.716-8.502,17.775-8.502c7.038,0,13.493,3.239,17.734,8.455    c-3.752,0.837-7.375,2.106-10.858,3.833c-2.476,1.228-4.785,2.734-6.878,4.476c-1.81-1.498-3.78-2.815-5.878-3.923    C246.951,292.229,242.98,290.624,238.266,289.588z M371.224,297.675c0,10.677-0.784,26.087-2.853,39.37    c-5.486-3.66-10.737-8.608-16.468-14.013c-2.844-2.682-5.761-5.434-8.874-8.189c11.115-3.886,20.64-11.532,28.195-22.707V297.675z     M371.225,251.075c-0.407,2.479-2.657,14.718-9.048,26.651c-8.437,15.756-20.235,24.087-35.077,24.826    c-6.09-3.95-12.241-7.07-18.755-9.526c-6.025-2.267-11.843-3.695-17.443-4.313c-5.966-13.676-19.592-22.828-34.861-22.828    c-15.28,0-28.916,9.167-34.875,22.859c-5.309,0.563-11.142,1.889-17.5,4.284c-7.238,2.729-13.483,6.111-18.766,9.524    c-14.841-0.74-26.638-9.071-35.075-24.826c-6.39-11.934-8.64-24.173-9.048-26.651v-10.159c0-7.72,0.779-15.396,2.293-22.896    c0.237-0.013,0.474-0.021,0.713-0.041c74.462-6.094,149.971-6.094,224.434,0c0.238,0.019,0.473,0.016,0.71,0.029    c1.516,7.503,2.296,15.183,2.296,22.907V251.075z M378.589,149.936v44.612c0,2.456-0.912,4.649-2.568,6.176    c-1.698,1.565-4.033,2.313-6.566,2.105c-37.647-3.081-75.545-4.621-113.457-4.621c-37.902,0-75.816,1.54-113.453,4.621    c-2.539,0.207-4.872-0.541-6.569-2.106c-1.655-1.525-2.567-3.718-2.567-6.175v-44.612h0.002c0-5.688,4.75-10.881,10.373-11.34    c74.462-6.094,149.971-6.094,224.432,0c0.001,0,0.001,0,0.002,0C373.84,139.055,378.589,144.247,378.589,149.936z M374.82,43.07    c0-15.367,12.502-27.869,27.868-27.869c15.367,0,27.869,12.501,27.869,27.869c0,15.367-12.501,27.868-27.869,27.868    C387.322,70.938,374.82,58.437,374.82,43.07z" data-original="#000000" class="active-path" fill="#FFFFFF"/>
	</g>
</g><g>
	<g>
		<path d="M296.521,490.651c-1.558-2.889-4.946-4.487-8.17-3.84c-3.447,0.719-6.018,3.738-6.107,7.272    c-0.083,3.321,2.07,6.347,5.209,7.393C293.844,503.606,299.715,496.572,296.521,490.651z" data-original="#000000" class="active-path" fill="#FFFFFF"/>
	</g>
</g></g> </svg>
