<?xml version="1.0" encoding="iso-8859-1"?>
<!-- Generator: Adobe Illustrator 19.0.0, SVG Export Plug-In . SVG Version: 6.00 Build 0)  -->
<svg version="1.1" id="Capa_1" xmlns="http://www.w3.org/2000/svg" xmlns:xlink="http://www.w3.org/1999/xlink" x="0px" y="0px"
	 viewBox="0 0 512.001 512.001" style="enable-background:new 0 0 512.001 512.001;" xml:space="preserve">
<path style="fill:#FF525D;" d="M390.022,73.978c-21.16,11.087-21.221,58.037-21.221,58.575l-145.119,34.395l-6.496-2.777
	l-73.988-31.618c0,0,5.371-114.352,163.725-103.245c17.907,1.257,37.769,4.114,59.791,8.928L390.022,73.978z"/>
<path style="fill:#EF4152;" d="M232.904,126.604c3.121,17.41-3.496,29.419-15.718,37.567l-73.988-31.618
	c0,0,5.371-114.352,163.725-103.245C306.923,29.308,218.686,47.387,232.904,126.604z"/>
<circle style="fill:#FCF8F2;" cx="402.695" cy="43.069" r="35.469"/>
<path style="fill:#E5E1DC;" d="M389.516,43.069c0-15.694,10.196-28.996,24.322-33.671c-3.506-1.16-7.252-1.798-11.147-1.798
	c-19.589,0-35.469,15.88-35.469,35.469s15.88,35.469,35.469,35.469c3.896,0,7.641-0.637,11.147-1.798
	C399.712,72.066,389.516,58.762,389.516,43.069z"/>
<path style="fill:#EFC1AB;" d="M133.176,296.936c-17.138,0-31.03-13.893-31.03-31.03s13.893-31.03,31.03-31.03h245.65
	c17.138,0,31.03,13.893,31.03,31.03s-13.893,31.03-31.03,31.03"/>
<path style="fill:#FFDAC5;" d="M378.823,240.916v56.761c0,13.742-1.236,35.216-4.905,50.802l-235.838,0.01
	c-0.963-4.104-1.763-8.624-2.412-13.296c-1.824-13.073-2.493-27.382-2.493-37.516v-56.761c0-10.408,1.297-20.511,3.739-30.159
	l31.659-15.981l90.72-45.806l115.791,61.787C377.526,220.404,378.823,230.508,378.823,240.916z"/>
<g>
	<path style="fill:#EFC1AB;" d="M165.443,348.488h-27.362c-3.669-15.586-4.905-37.06-4.905-50.812v-56.761
		c0-10.408,1.297-20.511,3.739-30.159l25.122-7.621c-0.983,16.326-1.5,31.233-1.5,37.78v56.761
		C160.538,311.428,161.774,332.902,165.443,348.488z"/>
	<path style="fill:#EFC1AB;" d="M206.343,300.139c-17.36,10.59-48.045,24.919-70.675,35.053
		c-1.824-13.073-2.493-27.382-2.493-37.516v-56.761c0-10.408,1.297-20.511,3.739-30.159l31.659-15.981l34.983,12.019
		C230.918,206.794,236.187,281.938,206.343,300.139z"/>
</g>
<path style="fill:#E5E1DC;" d="M378.825,251.658v46.018c0,13.742-1.236,35.216-4.905,50.802l-235.838,0.01
	c-3.669-15.586-4.905-37.06-4.905-50.812v-46.018c0,0,8.036,58.564,53.903,58.564h137.843
	C370.79,310.222,378.825,251.658,378.825,251.658z"/>
<path style="fill:#FF525D;" d="M447.979,504.4c-4.52-43.617-24.899-82.764-55.555-112.092c-7.408-7.094-15.424-13.61-23.957-19.467
	l-111.563-51.382L143.533,372.84c-43.83,30.118-73.907,77.403-79.511,131.56"/>
<path style="fill:#EF4152;" d="M211.935,372.84l78.895-35.757l-33.926-15.625L143.533,372.84
	c-43.83,30.118-73.907,77.403-79.511,131.56h68.401C138.027,450.243,168.105,402.958,211.935,372.84z"/>
<path style="fill:#FCF8F2;" d="M369.48,361.449c-0.111,1.753-0.253,3.8-0.466,6.101c-0.415,4.591-1.084,10.175-2.128,16.346
	c-0.679,4.013-1.52,8.259-2.554,12.647v0.01c-6.648,28.102-21.464,61.605-54.47,70.735l-7.276-18.89l-46.586,44.853l-44.6-42.958
	l-1.976-1.895l-7.286,18.89c-33.006-9.131-47.822-42.634-54.47-70.735v-0.01c-1.034-4.388-1.875-8.644-2.554-12.657
	c-0.405-2.432-0.76-4.783-1.064-7.013c-0.466-3.405-0.801-6.536-1.054-9.313c-0.213-2.311-0.365-4.368-0.476-6.121l16.549-5.786
	l90.75-31.719l7.084-2.473l5.878,2.088l90,31.973L369.48,361.449z"/>
<path style="fill:#FF525D;" d="M226.652,295.993c3.486-12.961,15.323-22.508,29.389-22.508c14.066,0,25.902,9.546,29.389,22.508
	l-29.422,43.322L226.652,295.993z"/>
<g>
	<path style="fill:#E5E1DC;" d="M369.014,367.55c-0.415,4.591-1.084,10.175-2.128,16.346c-1.044,0.456-2.098,0.902-3.162,1.338
		c-37.374,15.343-89.341,19.123-107.714-24.636c-18.383,43.759-70.34,39.979-107.714,24.636c-1.074-0.446-2.138-0.892-3.182-1.348
		c-1.044-6.151-1.702-11.735-2.118-16.326c5.705-3,10.864-7.185,16.073-11.907c5.523-5.006,11.097-10.62,17.441-16.032
		c8.178-6.962,17.623-13.59,29.834-18.201c18.069-6.8,31.274-4.246,40.262,0.507c1.135,0.598,2.209,1.267,3.212,2.007
		c2.493,1.784,4.581,3.942,6.222,6.344c1.763-2.564,4.033-4.854,6.739-6.729c1.094-0.77,2.27-1.469,3.517-2.088
		c8.969-4.449,21.879-6.617,39.371-0.041c11.968,4.51,21.251,10.955,29.297,17.775c6.506,5.493,12.181,11.208,17.816,16.326
		C358.039,360.294,363.247,364.54,369.014,367.55z"/>
	<path style="fill:#E5E1DC;" d="M192.409,387.119c0,0-9.425,34.76,18.991,63.175l-1.976-1.895l-7.286,18.89
		c-33.006-9.131-47.822-42.634-54.47-70.735v-0.01c-1.034-4.388-1.875-8.644-2.554-12.657c-0.405-2.432-0.76-4.783-1.064-7.013
		L192.409,387.119z"/>
</g>
<g>
	<path style="fill:#FCF8F2;" d="M334.96,317.91c-8.045-6.814-17.328-13.259-29.292-17.77c-17.49-6.582-30.402-4.405-39.373,0.043
		c-4.3,2.134-7.768,5.209-10.254,8.812c-2.312-3.371-5.491-6.265-9.433-8.346c-8.994-4.754-22.194-7.311-40.262-0.507
		c-12.219,4.606-21.662,11.241-29.836,18.204c-14.981,12.784-25.697,26.666-41.545,31.167c-3.387,0.972-7.006,1.5-10.959,1.5
		c6.728,4.66,15.062,9.149,24.287,12.942c37.372,15.341,89.333,19.123,107.713-24.638c18.38,43.761,70.341,39.978,107.713,24.638
		c9.225-3.793,17.548-8.283,24.275-12.942c-3.953,0-7.571-0.528-10.959-1.5C361.016,344.966,350.219,330.799,334.96,317.91z"/>
	<path style="fill:#FCF8F2;" d="M386.191,149.933v44.62c0,9.597-7.763,16.63-17.349,15.85
		c-54.987-4.499-110.187-5.705-165.286-3.608c-20.146,0.76-40.283,1.966-60.388,3.608c-9.587,0.78-17.36-6.253-17.36-15.85v-44.62
		c0-9.597,7.773-18.13,17.36-18.91c22.457-1.834,44.954-3.121,67.452-3.861h0.01c52.747-1.743,105.576-0.446,158.212,3.861
		C378.428,131.803,386.191,140.336,386.191,149.933z"/>
</g>
<path style="fill:#E5E1DC;" d="M203.556,206.794c-20.146,0.76-40.283,1.966-60.388,3.608c-9.587,0.78-17.36-6.253-17.36-15.85
	v-44.62c0-9.597,7.773-18.13,17.36-18.91c22.457-1.834,44.954-3.121,67.452-3.861h0.01
	C210.629,127.161,180.663,159.124,203.556,206.794z"/>
<path d="M199.022,254.252c-4.197,0-7.6,3.403-7.6,7.6v10.733c0,4.197,3.403,7.6,7.6,7.6c4.198,0,7.601-3.403,7.601-7.6v-10.733
	C206.622,257.655,203.219,254.252,199.022,254.252z"/>
<path d="M316.487,254.252c-4.198,0-7.6,3.403-7.6,7.6v10.733c0,4.197,3.403,7.6,7.6,7.6s7.6-3.403,7.6-7.6v-10.733
	C324.088,257.655,320.686,254.252,316.487,254.252z"/>
<path d="M180.642,246.005c1.945,0,3.89-0.742,5.374-2.226c3.474-3.474,8.093-5.387,13.006-5.387c4.913,0,9.532,1.913,13.006,5.387
	c2.968,2.968,7.781,2.968,10.748,0c2.968-2.968,2.968-7.781,0-10.748c-6.345-6.345-14.781-9.839-23.754-9.839
	c-8.974,0-17.41,3.494-23.754,9.839c-2.968,2.968-2.968,7.781,0,10.748C176.752,245.264,178.697,246.005,180.642,246.005z"/>
<path d="M303.481,243.779c3.474-3.474,8.093-5.387,13.006-5.387c4.913,0,9.532,1.913,13.006,5.387
	c1.484,1.485,3.429,2.226,5.374,2.226c1.945,0,3.89-0.742,5.374-2.226c2.968-2.968,2.968-7.78,0-10.748
	c-6.345-6.345-14.78-9.839-23.754-9.839c-8.973,0-17.409,3.494-23.754,9.839c-2.968,2.968-2.968,7.781,0,10.748
	C295.701,246.747,300.514,246.747,303.481,243.779z"/>
<path d="M455.539,503.616c-2.893-27.918-11.906-54.311-26.788-78.444c-2.203-3.572-6.886-4.683-10.458-2.48
	c-3.573,2.203-4.684,6.886-2.48,10.458c13.672,22.171,21.951,46.407,24.606,72.032c0.404,3.909,3.705,6.818,7.551,6.818
	c0.261,0,0.527-0.013,0.792-0.042C452.937,511.527,455.973,507.791,455.539,503.616z"/>
<path d="M414.447,405.014c-5.163-6.37-10.806-12.493-16.767-18.197c-6.604-6.325-13.719-12.236-21.191-17.622
	c0.095-0.986,0.181-1.935,0.255-2.817c5.657-2.821,10.934-5.904,15.579-9.121c2.733-1.893,3.919-5.342,2.928-8.516
	s-3.93-5.334-7.255-5.334c-1.804,0-3.525-0.147-5.207-0.412c2.246-12.614,3.299-27.252,3.564-39.201
	c17.709-3.512,31.103-19.163,31.103-37.889c0-18.929-13.69-34.711-31.686-37.993c-0.465-4.677-1.183-9.317-2.145-13.9
	c0.939-0.638,1.849-1.329,2.699-2.111c4.815-4.438,7.467-10.6,7.468-17.352v-44.613c0-10.968-7.194-20.862-17.079-24.785
	c0.921-12.455,4.16-32.163,12.62-41.142c4.208,1.376,8.695,2.131,13.357,2.131c23.749,0,43.069-19.32,43.069-43.069
	S426.438,0,402.689,0c-18.985,0-35.128,12.352-40.846,29.438C292.23,15.159,236.811,18.905,197.049,40.595
	c-3.686,2.01-5.044,6.627-3.033,10.311c1.379,2.529,3.988,3.962,6.679,3.962c1.229,0,2.477-0.299,3.632-0.929
	c36.691-20.014,88.933-23.175,155.328-9.428c0.43,12.966,6.612,24.497,16.079,32.116c-10.079,13.287-13.177,33.928-14.121,46.217
	c-69.45-5.284-139.734-5.338-209.2-0.155c2.992-13.462,11.34-37.646,34.277-56.798c3.222-2.691,3.652-7.483,0.963-10.706
	c-2.691-3.222-7.484-3.652-10.706-0.963c-29.71,24.807-38.113,56.288-40.457,70.485c-10.499,3.574-18.281,13.821-18.281,25.229
	v44.613c0,6.752,2.651,12.914,7.465,17.351c0.851,0.785,1.754,1.495,2.697,2.134c-0.961,4.576-1.677,9.209-2.141,13.879
	c-17.995,3.282-31.684,19.064-31.684,37.993c0,18.725,13.393,34.376,31.101,37.888c0.266,11.951,1.318,26.59,3.563,39.203
	c-1.678,0.266-3.398,0.411-5.203,0.411c-3.324,0-6.263,2.161-7.255,5.334c-0.992,3.173,0.195,6.623,2.928,8.515
	c4.637,3.212,9.913,6.293,15.577,9.117c0.074,0.886,0.161,1.837,0.256,2.827c-44.795,32.294-73.527,81.031-79.051,134.414
	c-0.433,4.175,2.602,7.911,6.778,8.342c0.267,0.027,0.53,0.042,0.791,0.042c3.846,0,7.146-2.909,7.551-6.819
	c4.802-46.41,28.755-89.032,66.273-118.695c0.65,3.709,1.431,7.617,2.376,11.637c0.012,0.06,0.025,0.119,0.04,0.177
	c9.894,41.83,30.585,68.22,59.839,76.317c3.767,1.043,7.712-0.943,9.119-4.59l3.168-8.214l36.003,34.671v7.915
	c0,4.198,3.403,7.6,7.6,7.6c4.198,0,7.6-3.403,7.6-7.6v-7.915l36.008-34.668l3.161,8.208c1.406,3.65,5.352,5.638,9.121,4.594
	c29.254-8.097,49.946-34.487,59.839-76.317c0.013-0.058,0.026-0.116,0.039-0.174c0.948-4.024,1.73-7.936,2.38-11.649
	c4.526,3.579,8.884,7.36,13.021,11.322c5.503,5.265,10.708,10.912,15.47,16.786c1.502,1.854,3.696,2.815,5.909,2.815
	c1.681,0,3.374-0.555,4.781-1.696C416.591,413.061,417.091,408.274,414.447,405.014z M402.689,15.201
	c15.367,0,27.868,12.501,27.868,27.868s-12.501,27.868-27.868,27.868c-15.367,0-27.868-12.501-27.868-27.868
	S387.323,15.201,402.689,15.201z M144.549,353.994c9.775-4.616,17.702-12.099,26.001-19.931c3.477-3.282,7.073-6.676,10.891-9.934
	c9.433-8.035,17.94-13.24,27.585-16.876c13.104-4.935,24.554-4.897,34.035,0.116c2.756,1.455,5.015,3.449,6.714,5.924
	c1.415,2.063,3.756,3.298,6.257,3.301c0.003,0,0.007,0,0.01,0c2.498,0,4.837-1.227,6.256-3.284c1.825-2.645,4.375-4.83,7.374-6.318
	c9.342-4.63,20.552-4.543,33.316,0.259c9.511,3.586,17.857,8.661,27.062,16.459c0.002,0.002,0.005,0.004,0.007,0.006
	c4.019,3.395,7.78,6.943,11.418,10.373c8.298,7.826,16.227,15.304,25.982,19.909c-2.155,1.018-4.367,1.995-6.621,2.923
	c-19.729,8.099-40.547,11.502-57.108,9.338c-19.768-2.582-33.466-12.638-40.711-29.888c-1.185-2.821-3.947-4.658-7.008-4.658
	c-3.06,0-5.823,1.836-7.008,4.658c-7.245,17.25-20.943,27.306-40.711,29.888c-16.562,2.165-37.379-1.24-57.104-9.336
	C148.924,355.993,146.706,355.014,144.549,353.994z M143.785,217.979c74.462-6.094,149.971-6.094,224.434,0
	c0.238,0.019,0.473,0.016,0.71,0.029c1.516,7.503,2.296,15.183,2.296,22.907v10.159c-0.407,2.479-2.657,14.718-9.048,26.651
	c-8.437,15.756-20.235,24.088-35.077,24.826c-6.09-3.95-12.241-7.069-18.755-9.526c-6.025-2.267-11.843-3.695-17.443-4.313
	c-5.966-13.676-19.592-22.828-34.861-22.828c-15.28,0-28.916,9.167-34.875,22.859c-5.309,0.563-11.142,1.889-17.5,4.284
	c-7.238,2.729-13.483,6.111-18.766,9.524c-14.841-0.74-26.638-9.071-35.075-24.826c-6.389-11.934-8.64-24.173-9.048-26.651v-10.159
	c0-7.72,0.779-15.396,2.293-22.896C143.308,218.007,143.545,217.999,143.785,217.979z M351.903,323.031
	c-2.844-2.682-5.761-5.434-8.874-8.189c11.115-3.886,20.64-11.533,28.195-22.707v5.54c0,10.677-0.784,26.087-2.853,39.37
	C362.886,333.384,357.634,328.437,351.903,323.031z M273.775,289.54c-3.752,0.837-7.376,2.106-10.858,3.833
	c-2.476,1.228-4.785,2.734-6.878,4.476c-1.81-1.498-3.78-2.815-5.878-3.923c-3.211-1.697-7.182-3.303-11.896-4.338
	c4.24-5.245,10.716-8.502,17.775-8.502C263.079,281.086,269.534,284.325,273.775,289.54z M140.777,297.675v-5.54
	c7.554,11.173,17.077,18.818,28.189,22.705c-3.105,2.751-6.02,5.496-8.851,8.169c-5.735,5.414-10.989,10.367-16.487,14.035
	C141.561,323.761,140.777,308.353,140.777,297.675z M402.256,265.906c0,10.26-6.632,18.994-15.831,22.158v-44.316
	C395.625,246.912,402.256,255.646,402.256,265.906z M133.411,149.936c0-5.688,4.75-10.881,10.373-11.34
	c74.462-6.094,149.971-6.094,224.432,0c0.001,0,0.001,0,0.002,0c5.621,0.459,10.371,5.652,10.371,11.34v44.612
	c0,2.456-0.912,4.649-2.568,6.176c-1.698,1.565-4.033,2.313-6.566,2.105c-37.647-3.081-75.545-4.621-113.457-4.621
	c-37.902,0-75.816,1.54-113.453,4.621c-2.539,0.207-4.872-0.541-6.569-2.106c-1.655-1.525-2.567-3.718-2.567-6.175v-44.612H133.411z
	 M109.748,265.906c0-10.26,6.631-18.993,15.829-22.158v44.315C116.378,284.899,109.748,276.165,109.748,265.906z M356.9,394.96
	c-5.52,23.245-17.35,52.022-42.584,62.747l-4.636-12.038c-0.915-2.376-2.96-4.137-5.447-4.688c-2.484-0.551-5.083,0.178-6.917,1.945
	L256,482.703l-41.304-39.776c-1.834-1.766-4.431-2.498-6.916-1.946c-2.486,0.55-4.531,2.31-5.447,4.686l-4.644,12.043
	c-25.235-10.723-37.064-39.499-42.585-62.746c-0.012-0.056-0.024-0.112-0.037-0.168c-1.869-7.91-3.059-15.366-3.82-21.557
	c11.414,4.165,28.343,8.887,46.51,8.887c4.12,0,8.307-0.243,12.502-0.791c19.903-2.599,35.479-11.6,45.75-26.277
	c10.271,14.677,25.847,23.677,45.75,26.277c22.675,2.96,44.99-2.978,58.998-8.086c-0.761,6.19-1.951,13.644-3.82,21.548
	C356.924,394.849,356.912,394.905,356.9,394.96z"/>
<path d="M288.351,486.811c-3.447,0.719-6.018,3.738-6.107,7.272c-0.083,3.321,2.07,6.347,5.209,7.393
	c6.391,2.13,12.262-4.904,9.068-10.825C294.964,487.762,291.575,486.163,288.351,486.811z"/>
<g>
</g>
<g>
</g>
<g>
</g>
<g>
</g>
<g>
</g>
<g>
</g>
<g>
</g>
<g>
</g>
<g>
</g>
<g>
</g>
<g>
</g>
<g>
</g>
<g>
</g>
<g>
</g>
<g>
</g>
</svg>
