<?xml version="1.0" encoding="iso-8859-1"?>
<!-- Generator: Adobe Illustrator 19.0.0, SVG Export Plug-In . SVG Version: 6.00 Build 0)  -->
<svg version="1.1" id="Capa_1" xmlns="http://www.w3.org/2000/svg" xmlns:xlink="http://www.w3.org/1999/xlink" x="0px" y="0px"
	 viewBox="0 0 512 512" style="enable-background:new 0 0 512 512;" xml:space="preserve">
<path style="fill:#FF525D;" d="M394.122,68.409c-21.807,11.426-21.87,59.813-21.87,60.367l-149.559,35.447l-6.695-2.862
	l-76.252-32.586c0,0,5.535-117.851,168.735-106.404c18.455,1.295,38.925,4.24,61.62,9.201L394.122,68.409z"/>
<path style="fill:#EF4152;" d="M232.197,122.645c3.217,17.943-3.603,30.319-16.199,38.716l-76.252-32.586
	c0,0,5.535-117.851,168.735-106.404C308.48,22.371,217.544,41.003,232.197,122.645z"/>
<circle style="fill:#FCF8F2;" cx="407.183" cy="36.554" r="36.554"/>
<path style="fill:#E5E1DC;" d="M393.601,36.554c0-16.174,10.508-29.884,25.066-34.701C415.053,0.657,411.193,0,407.178,0
	c-20.188,0-36.554,16.366-36.554,36.554s16.366,36.554,36.554,36.554c4.015,0,7.875-0.657,11.488-1.853
	C404.109,66.439,393.601,52.728,393.601,36.554z"/>
<path style="fill:#EFC1AB;" d="M129.418,298.189c-17.662,0-31.98-14.318-31.98-31.98s14.318-31.98,31.98-31.98h253.166
	c17.662,0,31.98,14.318,31.98,31.98s-14.318,31.98-31.98,31.98"/>
<path style="fill:#FFDAC5;" d="M382.581,240.454v58.497c0,14.162-1.274,36.293-5.055,52.356l-243.055,0.01
	c-0.992-4.23-1.817-8.888-2.486-13.703c-1.88-13.473-2.569-28.22-2.569-38.664v-58.497c0-10.726,1.337-21.139,3.854-31.082
	l32.627-16.47l93.495-47.207l119.334,63.678C381.244,219.315,382.581,229.728,382.581,240.454z"/>
<g>
	<path style="fill:#EFC1AB;" d="M162.672,351.318h-28.199c-3.781-16.063-5.055-38.194-5.055-52.367v-58.497
		c0-10.726,1.337-21.139,3.854-31.082l25.891-7.854c-1.013,16.825-1.546,32.189-1.546,38.936v58.497
		C157.617,313.124,158.891,335.255,162.672,351.318z"/>
	<path style="fill:#EFC1AB;" d="M204.823,301.489c-17.891,10.914-49.515,25.682-72.837,36.126
		c-1.88-13.473-2.569-28.22-2.569-38.664v-58.497c0-10.726,1.337-21.139,3.854-31.082l32.627-16.47l36.053,12.387
		C230.15,205.289,235.581,282.732,204.823,301.489z"/>
</g>
<path style="fill:#E5E1DC;" d="M382.583,251.525v47.427c0,14.162-1.274,36.293-5.055,52.356l-243.055,0.01
	c-3.781-16.063-5.055-38.194-5.055-52.367v-47.427c0,0,8.282,60.356,55.552,60.356h142.06
	C374.301,311.881,382.583,251.525,382.583,251.525z"/>
<path style="fill:#FF525D;" d="M453.853,512c-4.658-44.951-25.661-85.297-57.254-115.522c-7.635-7.311-15.896-14.026-24.69-20.063
	L256.932,323.46l-116.84,52.955C94.921,407.455,63.923,456.187,58.147,512"/>
<path style="fill:#EF4152;" d="M210.586,376.415l81.309-36.851l-34.964-16.103l-116.84,52.954
	C94.921,407.455,63.923,456.187,58.147,512h70.494C134.417,456.187,165.415,407.455,210.586,376.415z"/>
<path style="fill:#313344;" d="M197.278,280.926c-4.326,0-7.833-3.507-7.833-7.833v-11.061c0-4.326,3.507-7.833,7.833-7.833
	c4.326,0,7.833,3.507,7.833,7.833v11.061C205.111,277.419,201.604,280.926,197.278,280.926z"/>
<path style="fill:#FCF8F2;" d="M372.956,364.68c-0.115,1.807-0.261,3.917-0.48,6.287c-0.428,4.731-1.118,10.486-2.193,16.846
	c-0.7,4.136-1.567,8.512-2.632,13.034v0.01c-6.851,28.961-22.121,63.49-56.137,72.9l-7.499-19.468l-48.011,46.226l-45.964-44.272
	l-2.037-1.953l-7.509,19.468c-34.016-9.41-49.286-43.938-56.137-72.9v-0.01c-1.065-4.522-1.932-8.909-2.632-13.045
	c-0.418-2.507-0.783-4.93-1.097-7.227c-0.48-3.509-0.825-6.736-1.086-9.598c-0.219-2.381-0.376-4.501-0.491-6.308l8.157-2.851
	l8.898-3.112l93.527-32.69l7.3-2.548l6.058,2.151l92.754,32.951L372.956,364.68z"/>
<path style="fill:#313344;" d="M318.338,280.926c-4.326,0-7.833-3.507-7.833-7.833v-11.061c0-4.326,3.507-7.833,7.833-7.833
	s7.833,3.507,7.833,7.833v11.061C326.171,277.419,322.664,280.926,318.338,280.926z"/>
<path style="fill:#FF525D;" d="M225.754,297.218c3.593-13.358,15.791-23.196,30.288-23.196c14.496,0,26.695,9.838,30.288,23.196
	l-30.322,44.647L225.754,297.218z"/>
<g>
	<path style="fill:#E5E1DC;" d="M372.471,370.963c-0.428,4.731-1.118,10.486-2.193,16.846c-1.076,0.47-2.162,0.93-3.259,1.379
		c-38.518,15.812-92.075,19.708-111.01-25.39c-18.946,45.098-72.492,41.202-111.01,25.39c-1.107-0.46-2.204-0.919-3.279-1.389
		c-1.076-6.34-1.755-12.094-2.183-16.825c5.88-3.091,11.196-7.405,16.564-12.272c5.692-5.159,11.436-10.945,17.974-16.523
		c8.428-7.175,18.162-14.006,30.747-18.758c18.622-7.008,32.23-4.376,41.494,0.522c1.17,0.616,2.277,1.306,3.311,2.068
		c2.569,1.838,4.721,4.063,6.413,6.538c1.817-2.642,4.157-5.003,6.945-6.935c1.128-0.794,2.339-1.514,3.624-2.151
		c9.243-4.585,22.549-6.82,40.575-0.042c12.334,4.648,21.901,11.29,30.194,18.319c6.705,5.661,12.554,11.551,18.361,16.825
		C361.16,363.485,366.529,367.861,372.471,370.963z"/>
	<path style="fill:#E5E1DC;" d="M210.039,456.243l-2.037-1.953l-7.509,19.468c-34.016-9.41-49.286-43.938-56.137-72.9v-0.01
		c-1.065-4.522-1.932-8.909-2.632-13.045c-0.418-2.507-0.783-4.93-1.097-7.227c-0.48-3.509-0.825-6.736-1.086-9.598
		c-0.219-2.381-0.376-4.501-0.491-6.308l8.157-2.851l43.259,29.317C190.467,391.135,180.754,426.958,210.039,456.243z"/>
</g>
<path style="fill:#FCF8F2;" d="M392.037,353.912c-6.935,4.804-15.509,9.431-25.024,13.348c-38.518,15.802-92.065,19.708-111.01-25.4
	c-9.295,22.152-26.935,32.481-47.051,35.395c-20.846,3.008-44.356-1.953-63.96-9.995c-9.504-3.917-18.089-8.543-25.024-13.348
	c4.073,0,7.802-0.543,11.29-1.546c16.335-4.637,27.384-18.946,42.821-32.116c8.418-7.175,18.152-14.016,30.747-18.758
	c18.622-7.018,32.23-4.376,41.494,0.522c4.063,2.141,7.342,5.128,9.723,8.595c2.559-3.708,6.131-6.883,10.569-9.076
	c9.243-4.585,22.549-6.83,40.575-0.042c12.324,4.648,21.891,11.29,30.183,18.308c15.729,13.285,26.852,27.886,43.364,32.565
	C384.236,353.369,387.964,353.912,392.037,353.912z"/>
<path style="fill:#E5E1DC;" d="M178.336,245.7c-2.004,0-4.009-0.764-5.538-2.295c-3.059-3.059-3.059-8.018,0-11.077
	c6.539-6.539,15.233-10.14,24.481-10.14c9.247,0,17.942,3.601,24.481,10.14c3.059,3.059,3.059,8.019,0,11.077
	c-3.059,3.059-8.019,3.059-11.077,0c-3.58-3.58-8.341-5.552-13.404-5.552c-5.063,0-9.824,1.972-13.404,5.552
	C182.345,244.935,180.34,245.7,178.336,245.7z"/>
<g>
	<path style="fill:#FCF8F2;" d="M337.281,245.7c-2.004,0-4.009-0.764-5.538-2.295c-3.58-3.58-8.341-5.552-13.404-5.552
		c-5.063,0-9.824,1.972-13.404,5.552c-3.059,3.059-8.019,3.059-11.077,0c-3.059-3.059-3.059-8.019,0-11.077
		c6.539-6.539,15.234-10.14,24.481-10.14c9.248,0,17.943,3.601,24.481,10.14c3.059,3.059,3.059,8.019,0,11.077
		C341.289,244.935,339.285,245.7,337.281,245.7z"/>
	<path style="fill:#FCF8F2;" d="M390.174,146.687v45.985c0,9.891-8,17.139-17.88,16.335c-56.67-4.637-113.558-5.88-170.343-3.718
		c-20.763,0.783-41.515,2.026-62.236,3.718c-9.88,0.804-17.891-6.444-17.891-16.335v-45.985c0-9.891,8.011-18.684,17.891-19.489
		c23.144-1.89,46.33-3.217,69.516-3.979h0.01c54.361-1.796,108.806-0.46,163.053,3.979
		C382.174,128.003,390.174,136.797,390.174,146.687z"/>
</g>
<path style="fill:#E5E1DC;" d="M201.951,205.289c-20.763,0.783-41.515,2.026-62.236,3.718c-9.88,0.804-17.891-6.444-17.891-16.335
	v-45.985c0-9.891,8.011-18.684,17.891-19.489c23.144-1.89,46.33-3.217,69.516-3.979h0.01
	C209.241,123.219,178.358,156.16,201.951,205.289z"/>
<path style="fill:#FCF8F2;" d="M290.876,504.171c-3.341,0-6.393-2.217-7.432-5.384c-1.061-3.233,0.124-6.899,2.919-8.856
	c5.564-3.895,13.438,0.973,12.224,7.742C297.925,501.364,294.65,504.171,290.876,504.171z"/>
<path style="fill:#E8E3DD;" d="M210.582,376.419l-1.629,0.836c-20.846,3.008-44.356-1.953-63.96-9.995
	c-9.504-3.917-18.089-8.543-25.024-13.348c4.073,0,7.802-0.543,11.29-1.546c16.335-4.637,27.384-18.946,42.821-32.116
	c0,0-17.567,23.959-4.762,40.471C182.122,377.234,210.582,376.419,210.582,376.419z"/>
<g>
</g>
<g>
</g>
<g>
</g>
<g>
</g>
<g>
</g>
<g>
</g>
<g>
</g>
<g>
</g>
<g>
</g>
<g>
</g>
<g>
</g>
<g>
</g>
<g>
</g>
<g>
</g>
<g>
</g>
</svg>
